<?xml version="1.0" encoding="UTF-8"?>
<svg id="Layer_1" xmlns="http://www.w3.org/2000/svg" viewBox="0 0 322.94 76.53">
  <defs>
    <style>
      .cls-1 {
        fill: #3c8e43;
      }

      .cls-2 {
        fill: #003d47;
      }
    </style>
  </defs>
  <path class="cls-2" d="M79,14.1c-12.17,0-22.08,9.9-22.08,22.08v39.79h9.08v-39.79c0-7.17,5.83-13,13-13s13,5.83,13,13-5.83,13-13,13c-1.37,0-2.69-.22-3.93-.61v9.32c1.28.23,2.58.36,3.93.36,12.17,0,22.08-9.9,22.08-22.08s-9.9-22.08-22.08-22.08"/>
  <path class="cls-2" d="M28.89,14.19v9.08c7.17,0,13,5.83,13,13s-5.83,13-13,13-13-5.83-13-13H6.82c0,12.17,9.9,22.08,22.08,22.08s22.08-9.9,22.08-22.08-9.9-22.08-22.08-22.08"/>
  <path class="cls-1" d="M22.08,15.33h0V6.25C9.9,6.25,0,16.16,0,28.33h9.07c0-7.17,5.83-13,13-13"/>
  <path class="cls-2" d="M194.7,55.59h-9.08v-19.41c0-6-2.81-13-10.73-13s-10.73,7-10.73,13v19.41h-9.07v-19.41c0-13,8.14-22.08,19.81-22.08s19.81,9.08,19.81,22.08v19.41Z"/>
  <path class="cls-2" d="M128.26,14.1c-12.17,0-22.08,9.9-22.08,22.08,0,10.57,7.48,19.43,17.42,21.58v-9.45c-4.87-1.88-8.34-6.6-8.34-12.12,0-7.17,5.83-13,13-13,6.16,0,11.32,4.31,12.66,10.08h-17.31v6.81h17.07s0,.01,0,.02h9.32s0-.01,0-.02c.05-.26.09-.52.13-.78.14-1.01.22-2.05.22-3.1,0-12.17-9.9-22.08-22.08-22.08"/>
  <path class="cls-1" d="M237.11,27.64c-1.9-1.1-4-2.01-6.24-2.7-2.22-.68-4.5-1.28-6.77-1.79-2.24-.5-4.3-1.03-6.12-1.58-1.75-.53-3.18-1.26-4.25-2.19-1.01-.88-1.51-2.01-1.51-3.47,0-1.2.35-2.27,1.06-3.26.71-.99,1.88-1.8,3.49-2.41,1.32-.5,2.98-.81,4.91-.91h16.22L237.81,0h-15.92l-.38.03h0c-4.16.17-7.69.9-10.51,2.18-3.24,1.48-5.69,3.48-7.28,5.96-1.59,2.48-2.4,5.24-2.4,8.21s.6,5.36,1.79,7.26c1.18,1.89,2.76,3.41,4.7,4.54,1.89,1.1,4.01,2.02,6.28,2.73,2.24.71,4.52,1.31,6.78,1.79,2.22.47,4.26,1,6.07,1.57,1.76.55,3.21,1.31,4.3,2.24,1.04.88,1.54,2.01,1.54,3.46,0,1.19-.36,2.23-1.09,3.17-.74.94-1.92,1.71-3.52,2.27-1.36.48-3.11.76-5.21.85h-20.57s.08,9.33.08,9.33h19.99l.59-.02h0c4.29-.15,7.93-.88,10.83-2.19,3.26-1.48,5.72-3.48,7.31-5.96,1.59-2.48,2.4-5.21,2.4-8.13s-.6-5.27-1.79-7.15c-1.18-1.86-2.76-3.37-4.69-4.5"/>
  <path class="cls-1" d="M282.11,27.64c-1.9-1.1-4-2.01-6.24-2.7-2.22-.68-4.5-1.28-6.77-1.79-2.24-.5-4.3-1.03-6.12-1.58-1.75-.53-3.18-1.26-4.25-2.19-1.01-.88-1.51-2.01-1.51-3.47,0-1.2.35-2.27,1.06-3.26.71-.99,1.88-1.8,3.49-2.41,1.32-.5,2.98-.81,4.91-.91h16.22L282.8,0h-15.92l-.38.03h0c-4.16.17-7.69.9-10.51,2.18-3.24,1.48-5.69,3.48-7.28,5.96-1.59,2.48-2.4,5.24-2.4,8.21s.6,5.36,1.79,7.26c1.18,1.89,2.76,3.41,4.7,4.54,1.89,1.1,4.01,2.02,6.28,2.73,2.24.71,4.52,1.31,6.78,1.79,2.22.47,4.26,1,6.07,1.57,1.76.55,3.21,1.31,4.3,2.24,1.04.88,1.54,2.01,1.54,3.46,0,1.19-.36,2.23-1.09,3.17-.74.94-1.92,1.71-3.52,2.27-1.36.48-3.12.77-5.23.85h-20.16s.08,9.33.08,9.33h19.6l.57-.02h0c4.3-.14,7.95-.87,10.86-2.19,3.26-1.48,5.72-3.48,7.31-5.96,1.59-2.48,2.4-5.21,2.4-8.13s-.6-5.27-1.79-7.15c-1.18-1.86-2.76-3.37-4.69-4.5"/>
  <path class="cls-1" d="M316.44,44.33c-5.66,0-10.43-3.97-11.61-9.28-.35-1.57-.29-2.85-.29-3.75V0h-11.29l.02,32.43c0,12.78,10.4,23.17,23.18,23.17h6.16v-11.27h-6.16Z"/>
  <g>
    <path class="cls-1" d="M155.22,76.28v-13.3h7.8v1.6h-6.2v3.78h5.29v1.6h-5.29v6.33h-1.6Z"/>
    <path class="cls-1" d="M176.32,76.53c-.9,0-1.74-.18-2.54-.54-.79-.36-1.49-.85-2.09-1.49-.6-.63-1.07-1.37-1.42-2.2-.34-.83-.51-1.72-.51-2.67s.17-1.84.51-2.67c.34-.83.81-1.57,1.42-2.2.6-.63,1.3-1.13,2.09-1.49.79-.36,1.64-.54,2.54-.54s1.75.18,2.55.54c.79.36,1.49.85,2.09,1.49.6.63,1.07,1.37,1.41,2.2s.51,1.72.51,2.67-.17,1.84-.51,2.67-.81,1.57-1.41,2.2c-.6.63-1.3,1.13-2.09,1.49-.79.36-1.64.54-2.55.54ZM176.32,74.93c.69,0,1.33-.14,1.93-.42.6-.28,1.12-.66,1.58-1.15.45-.49.81-1.05,1.06-1.69.26-.64.38-1.32.38-2.04s-.13-1.4-.39-2.05-.62-1.21-1.07-1.69c-.45-.48-.98-.87-1.58-1.14-.6-.28-1.24-.42-1.92-.42s-1.33.14-1.93.42c-.6.28-1.12.66-1.58,1.15-.45.49-.81,1.05-1.06,1.69-.26.64-.38,1.32-.38,2.04s.13,1.41.39,2.05.62,1.2,1.07,1.69c.45.49.98.87,1.58,1.14.6.28,1.24.41,1.92.41Z"/>
    <path class="cls-1" d="M195.78,76.53c-1.06,0-1.99-.26-2.77-.78-.78-.52-1.38-1.22-1.8-2.09-.42-.88-.63-1.85-.63-2.92v-7.75h1.6v7.75c0,.76.14,1.46.42,2.1.28.64.69,1.15,1.23,1.53s1.19.57,1.96.57,1.44-.19,1.98-.58c.53-.38.94-.89,1.21-1.53s.41-1.33.41-2.09v-7.75h1.6v7.75c0,.8-.12,1.56-.36,2.26-.24.7-.59,1.32-1.04,1.85-.45.53-1,.95-1.64,1.25-.64.3-1.36.45-2.16.45Z"/>
    <path class="cls-1" d="M209.05,76.28v-13.3h1.73l6.64,10.41v-10.41h1.6v13.3h-1.72l-6.65-10.41v10.41h-1.6Z"/>
    <path class="cls-1" d="M227.09,76.28v-13.3h4.4c.92,0,1.78.17,2.58.52.8.35,1.51.82,2.12,1.43.61.61,1.08,1.32,1.43,2.12.34.8.52,1.66.52,2.58s-.17,1.78-.52,2.58c-.35.8-.82,1.51-1.43,2.12-.61.61-1.31,1.09-2.12,1.43-.8.34-1.67.52-2.58.52h-4.4ZM228.69,74.69h2.8c.7,0,1.35-.13,1.96-.39s1.15-.62,1.61-1.09c.46-.46.83-1,1.09-1.61s.39-1.26.39-1.96-.13-1.35-.39-1.96-.63-1.15-1.09-1.61c-.46-.46-1-.83-1.61-1.09-.61-.26-1.26-.39-1.96-.39h-2.8v10.11Z"/>
    <path class="cls-1" d="M250.1,62.98h1.93l4.83,13.3h-1.69l-.99-2.72h-6.24l-.98,2.72h-1.7l4.84-13.3ZM248.53,71.97h5.06l-2.54-6.94-2.53,6.94Z"/>
    <path class="cls-1" d="M274.62,62.98v1.6h-4.43v11.7h-1.6v-11.7h-4.42v-1.6h10.44Z"/>
    <path class="cls-1" d="M282.6,76.28v-13.3h1.6v13.3h-1.6Z"/>
    <path class="cls-1" d="M298.73,76.53c-.9,0-1.75-.18-2.54-.54-.79-.36-1.49-.85-2.09-1.49-.6-.63-1.07-1.37-1.42-2.2-.34-.83-.51-1.72-.51-2.67s.17-1.84.51-2.67c.34-.83.81-1.57,1.42-2.2.6-.63,1.3-1.13,2.09-1.49.79-.36,1.64-.54,2.54-.54s1.75.18,2.55.54c.79.36,1.49.85,2.09,1.49.6.63,1.07,1.37,1.41,2.2s.51,1.72.51,2.67-.17,1.84-.51,2.67-.81,1.57-1.41,2.2c-.6.63-1.3,1.13-2.09,1.49-.79.36-1.64.54-2.55.54ZM298.73,74.93c.69,0,1.33-.14,1.93-.42.6-.28,1.12-.66,1.58-1.15.45-.49.81-1.05,1.06-1.69.26-.64.38-1.32.38-2.04s-.13-1.4-.39-2.05-.62-1.21-1.07-1.69c-.45-.48-.98-.87-1.58-1.14-.6-.28-1.24-.42-1.92-.42s-1.33.14-1.93.42c-.6.28-1.12.66-1.58,1.15-.45.49-.81,1.05-1.06,1.69-.26.64-.38,1.32-.38,2.04s.13,1.41.39,2.05.62,1.2,1.07,1.69c.45.49.98.87,1.58,1.14.6.28,1.24.41,1.92.41Z"/>
    <path class="cls-1" d="M312.98,76.28v-13.3h1.73l6.64,10.41v-10.41h1.6v13.3h-1.72l-6.65-10.41v10.41h-1.6Z"/>
  </g>
</svg>