<?xml version="1.0" encoding="UTF-8" standalone="no"?>
<!-- Created with Inkscape (http://www.inkscape.org/) -->

<svg
   xmlns:dc="http://purl.org/dc/elements/1.1/"
   xmlns:cc="http://creativecommons.org/ns#"
   xmlns:rdf="http://www.w3.org/1999/02/22-rdf-syntax-ns#"
   xmlns:svg="http://www.w3.org/2000/svg"
   xmlns="http://www.w3.org/2000/svg"
   xmlns:xlink="http://www.w3.org/1999/xlink"
   xmlns:sodipodi="http://sodipodi.sourceforge.net/DTD/sodipodi-0.dtd"
   xmlns:inkscape="http://www.inkscape.org/namespaces/inkscape"
   width="210mm"
   height="297mm"
   viewBox="0 0 210 297"
   version="1.1"
   id="svg8"
   inkscape:version="0.92.1 r15371"
   sodipodi:docname="SPI-content-bg2.svg"
   inkscape:export-filename="/home/valessio/SPI-content-bg2.png"
   inkscape:export-xdpi="299.962"
   inkscape:export-ydpi="299.962">
  <defs
     id="defs2">
    <clipPath
       id="clipPath6474-1"
       clipPathUnits="userSpaceOnUse">
      <path
         sodipodi:nodetypes="cccccccccccccccccccccccccccccsccccccccccccccccccccccccccccccccccc"
         style="color:#000000;font-style:normal;font-variant:normal;font-weight:bold;font-stretch:normal;font-size:48.570534px;line-height:100%;font-family:Transformers;-inkscape-font-specification:'Transformers Bold';text-indent:0;text-align:start;text-decoration:none;text-decoration-line:none;letter-spacing:-0.542395px;word-spacing:normal;text-transform:none;writing-mode:lr-tb;direction:ltr;text-anchor:start;visibility:visible;fill:url(#linearGradient6478);fill-opacity:1;fill-rule:nonzero;stroke:none;stroke-width:1;marker:none"
         d="m 278.249,83.9795 c -2.036,1e-4 -3.786,0.4477 -5.247,1.3832 -1.461,0.9355 -2.705,2.4802 -3.72,4.6263 l -1.359,5.1032 h 28.807 l 0.02,-0.072 h 8.251 l -0.02,0.072 c 0,0 0.02,0 0.02,0 0.875,-1.4243 1.855,-3.0187 2.981,-4.7694 1.146,-1.8159 2.46,-3.922 3.934,-6.3433 h -33.671 z m 69.251,0 -33.696,0.072 -2.957,11.0411 h 41.017 c 0.431,-1.6097 0.811,-2.9671 1.383,-5.1032 0.135,-2.146 -0.28,-3.6908 -1.24,-4.6263 -0.96,-0.9354 -2.471,-1.383 -4.507,-1.3831 z m 9.157,0.072 -2.957,11.0411 h 13.927 l 2.981,-11.0411 z m -91.238,17.7955 c -0.211,0.761 -0.444,1.546 -0.715,2.386 l -0.74,2.79 c -0.103,3.467 1.866,5.223 5.938,5.223 h 19.078 l -2.6,9.395 h -22.297 l -7.082,11.303 23.251,-0.167 0.02,-0.07 10.684,-0.167 c 4.072,0 6.997,-1.73 8.752,-5.197 l 5.151,-19.246 h -0.167 c 0.03,-0.11 0.07,-0.198 0.1,-0.31 0.1,-0.165 0.161,-0.319 0.191,-0.429 0.135,-2.146 -0.28,-3.691 -1.24,-4.626 -0.386,-0.376 -0.871,-0.658 -1.431,-0.882 h -36.891 z m 42.853,0 -8.299,30.93 h 14.046 l 2.766,-10.301 h -0.1 l 3.243,-12.066 h 21.534 l 0.07,-0.239 c 1.56,-0.275 2.899,-0.877 4.03,-1.812 1.186,-0.936 2.229,-2.31 3.1,-4.126 0.103,-0.386 0.201,-0.84 0.334,-1.335 0.06,-0.227 0.198,-0.721 0.286,-1.05 h -41.016 z m 42.853,0 -8.275,30.858 h 13.879 l 8.322,-30.858 z"
         id="path6476-6"
         inkscape:connector-curvature="0" />
    </clipPath>
    <filter
       id="filter5477-4"
       inkscape:collect="always"
       style="color-interpolation-filters:sRGB">
      <feGaussianBlur
         id="feGaussianBlur5479-3"
         stdDeviation="1.6542577"
         inkscape:collect="always" />
    </filter>
    <linearGradient
       y2="396.929"
       x2="366.547"
       y1="332.682"
       x1="366.547"
       gradientTransform="matrix(0.61378,0,0,0.61378,-93.5,-69.8474)"
       gradientUnits="userSpaceOnUse"
       id="linearGradient5559-4"
       xlink:href="#linearGradient5773-6"
       inkscape:collect="always" />
    <linearGradient
       id="linearGradient5773-6"
       inkscape:collect="always">
      <stop
         id="stop5775-47"
         offset="0"
         style="stop-color:#003ab2;stop-opacity:1" />
      <stop
         style="stop-color:#0a3e97;stop-opacity:1"
         offset="0.21037051"
         id="stop5777-1" />
      <stop
         id="stop5779-5"
         offset="0.36227795"
         style="stop-color:#068ae0;stop-opacity:1" />
      <stop
         style="stop-color:#afebc8;stop-opacity:1"
         offset="0.70665133"
         id="stop5781-9" />
      <stop
         style="stop-color:#def9d4;stop-opacity:1"
         offset="0.77644545"
         id="stop5783-9" />
      <stop
         id="stop5785-94"
         offset="1"
         style="stop-color:#3b7932;stop-opacity:1" />
    </linearGradient>
    <clipPath
       id="clipPath6474-1-2"
       clipPathUnits="userSpaceOnUse">
      <path
         sodipodi:nodetypes="cccccccccccccccccccccccccccccsccccccccccccccccccccccccccccccccccc"
         style="color:#000000;font-style:normal;font-variant:normal;font-weight:bold;font-stretch:normal;font-size:48.570534px;line-height:100%;font-family:Transformers;-inkscape-font-specification:'Transformers Bold';text-indent:0;text-align:start;text-decoration:none;text-decoration-line:none;letter-spacing:-0.542395px;word-spacing:normal;text-transform:none;writing-mode:lr-tb;direction:ltr;text-anchor:start;visibility:visible;fill:url(#linearGradient6478);fill-opacity:1;fill-rule:nonzero;stroke:none;stroke-width:1;marker:none"
         d="m 278.249,83.9795 c -2.036,1e-4 -3.786,0.4477 -5.247,1.3832 -1.461,0.9355 -2.705,2.4802 -3.72,4.6263 l -1.359,5.1032 h 28.807 l 0.02,-0.072 h 8.251 l -0.02,0.072 c 0,0 0.02,0 0.02,0 0.875,-1.4243 1.855,-3.0187 2.981,-4.7694 1.146,-1.8159 2.46,-3.922 3.934,-6.3433 h -33.671 z m 69.251,0 -33.696,0.072 -2.957,11.0411 h 41.017 c 0.431,-1.6097 0.811,-2.9671 1.383,-5.1032 0.135,-2.146 -0.28,-3.6908 -1.24,-4.6263 -0.96,-0.9354 -2.471,-1.383 -4.507,-1.3831 z m 9.157,0.072 -2.957,11.0411 h 13.927 l 2.981,-11.0411 z m -91.238,17.7955 c -0.211,0.761 -0.444,1.546 -0.715,2.386 l -0.74,2.79 c -0.103,3.467 1.866,5.223 5.938,5.223 h 19.078 l -2.6,9.395 h -22.297 l -7.082,11.303 23.251,-0.167 0.02,-0.07 10.684,-0.167 c 4.072,0 6.997,-1.73 8.752,-5.197 l 5.151,-19.246 h -0.167 c 0.03,-0.11 0.07,-0.198 0.1,-0.31 0.1,-0.165 0.161,-0.319 0.191,-0.429 0.135,-2.146 -0.28,-3.691 -1.24,-4.626 -0.386,-0.376 -0.871,-0.658 -1.431,-0.882 h -36.891 z m 42.853,0 -8.299,30.93 h 14.046 l 2.766,-10.301 h -0.1 l 3.243,-12.066 h 21.534 l 0.07,-0.239 c 1.56,-0.275 2.899,-0.877 4.03,-1.812 1.186,-0.936 2.229,-2.31 3.1,-4.126 0.103,-0.386 0.201,-0.84 0.334,-1.335 0.06,-0.227 0.198,-0.721 0.286,-1.05 h -41.016 z m 42.853,0 -8.275,30.858 h 13.879 l 8.322,-30.858 z"
         id="path6476-6-1"
         inkscape:connector-curvature="0" />
    </clipPath>
    <filter
       id="filter5611-2"
       inkscape:collect="always"
       style="color-interpolation-filters:sRGB">
      <feGaussianBlur
         id="feGaussianBlur5613-0"
         stdDeviation="0.82712887"
         inkscape:collect="always" />
    </filter>
  </defs>
  <sodipodi:namedview
     id="base"
     pagecolor="#ffffff"
     bordercolor="#666666"
     borderopacity="1.0"
     inkscape:pageopacity="0.0"
     inkscape:pageshadow="2"
     inkscape:zoom="0.707107"
     inkscape:cx="489.046"
     inkscape:cy="633.272"
     inkscape:document-units="mm"
     inkscape:current-layer="layer1"
     showgrid="false"
     inkscape:window-width="1920"
     inkscape:window-height="1016"
     inkscape:window-x="0"
     inkscape:window-y="27"
     inkscape:window-maximized="1"
     showguides="true"
     inkscape:guide-bbox="true"
     inkscape:snap-global="false">
    <sodipodi:guide
       position="46.398,204.675"
       orientation="1,0"
       id="guide183"
       inkscape:locked="false" />
    <sodipodi:guide
       position="136.575,246.583"
       orientation="0,1"
       id="guide185"
       inkscape:locked="false" />
    <sodipodi:guide
       position="136.949,29.9342"
       orientation="0,1"
       id="guide187"
       inkscape:locked="false" />
    <sodipodi:guide
       position="101.028,34.7985"
       orientation="0,1"
       id="guide189"
       inkscape:locked="false" />
    <sodipodi:guide
       position="183.347,228.622"
       orientation="1,0"
       id="guide191"
       inkscape:locked="false" />
  </sodipodi:namedview>
  <metadata
     id="metadata5">
    <rdf:RDF>
      <cc:Work
         rdf:about="">
        <dc:format>image/svg+xml</dc:format>
        <dc:type
           rdf:resource="http://purl.org/dc/dcmitype/StillImage" />
        <dc:title></dc:title>
      </cc:Work>
    </rdf:RDF>
  </metadata>
  <g
     inkscape:label="Camada 1"
     inkscape:groupmode="layer"
     id="layer1">
    <g
       id="g1428"
       transform="matrix(0.199643,0,0,0.199643,144.629,-4.17586)">
      <g
         transform="matrix(0.83806,0,0,0.83806,75.6467,165.705)"
         id="text39-6"
         style="font-style:normal;font-weight:normal;font-size:10.58332px;line-height:1.25;font-family:sans-serif;letter-spacing:0px;word-spacing:0px;fill:#000000;fill-opacity:1;stroke:none;stroke-width:0.264583"
         aria-label="Software in the Public Interest, Inc. ">
        <path
           inkscape:connector-curvature="0"
           d="m 160.134,36.3958 h 1.09 v 1.3126 h -1.09 z m -1.799,-4.2529 v 0.8888 q -0.403,-0.2222 -0.811,-0.3307 -0.403,-0.1137 -0.816,-0.1137 -0.925,0 -1.437,0.5891 -0.512,0.5839 -0.512,1.6433 0,1.0594 0.512,1.6485 0.512,0.5839 1.437,0.5839 0.413,0 0.816,-0.1085 0.408,-0.1137 0.811,-0.3359 v 0.8785 q -0.398,0.186 -0.826,0.279 -0.424,0.093 -0.905,0.093 -1.307,0 -2.077,-0.8217 -0.77,-0.8216 -0.77,-2.2169 0,-1.4159 0.775,-2.2273 0.78,-0.8113 2.134,-0.8113 0.439,0 0.858,0.093 0.419,0.088 0.811,0.2688 z m -6.072,2.0722 v 3.4933 h -0.95 v -3.4623 q 0,-0.8217 -0.321,-1.2299 -0.32,-0.4083 -0.961,-0.4083 -0.77,0 -1.214,0.491 -0.445,0.4909 -0.445,1.3384 v 3.2711 h -0.956 v -5.7878 h 0.956 v 0.8992 q 0.341,-0.5219 0.801,-0.7803 0.465,-0.2584 1.07,-0.2584 0.997,0 1.509,0.6201 0.511,0.615 0.511,1.8139 z m -7.891,-4.222 h 1.044 v 7.7153 h -1.044 z m -6.537,6.4027 h 1.091 v 0.8889 l -0.848,1.6536 h -0.666 l 0.423,-1.6536 z m -3.457,-6.1185 v 1.6433 h 1.959 v 0.739 h -1.959 v 3.1419 q 0,0.708 0.191,0.9095 0.197,0.2016 0.791,0.2016 h 0.977 v 0.7958 h -0.977 q -1.101,0 -1.519,-0.4082 -0.419,-0.4135 -0.419,-1.4987 v -3.1419 h -0.697 v -0.739 h 0.697 v -1.6433 z m -2.77,1.8139 v 0.8991 q -0.403,-0.2067 -0.837,-0.31 -0.434,-0.1034 -0.899,-0.1034 -0.708,0 -1.064,0.2171 -0.352,0.217 -0.352,0.6511 0,0.3307 0.253,0.5219 0.254,0.1861 1.018,0.3566 l 0.326,0.072 q 1.013,0.2171 1.437,0.615 0.428,0.3927 0.428,1.1007 0,0.8062 -0.64,1.2764 -0.636,0.4703 -1.752,0.4703 -0.465,0 -0.972,-0.093 -0.501,-0.088 -1.059,-0.2687 v -0.9818 q 0.527,0.2739 1.039,0.4134 0.511,0.1343 1.012,0.1343 0.672,0 1.034,-0.2273 0.362,-0.2326 0.362,-0.6512 0,-0.3875 -0.264,-0.5942 -0.258,-0.2067 -1.142,-0.3979 l -0.331,-0.078 q -0.883,-0.186 -1.276,-0.5684 -0.393,-0.3876 -0.393,-1.0594 0,-0.8164 0.579,-1.2609 0.579,-0.4444 1.643,-0.4444 0.527,0 0.993,0.078 0.465,0.078 0.857,0.2326 z m -5.25,2.4856 v 0.4651 h -4.372 q 0.06,0.9819 0.589,1.4986 0.533,0.5116 1.478,0.5116 0.548,0 1.06,-0.1343 0.516,-0.1344 1.023,-0.4031 v 0.8991 q -0.512,0.2171 -1.049,0.3308 -0.538,0.1137 -1.091,0.1137 -1.384,0 -2.196,-0.8062 -0.806,-0.8061 -0.806,-2.1807 0,-1.4211 0.765,-2.2531 0.77,-0.8372 2.072,-0.8372 1.168,0 1.845,0.7545 0.682,0.7493 0.682,2.0412 z m -0.951,-0.279 q -0.01,-0.7804 -0.439,-1.2454 -0.424,-0.4651 -1.127,-0.4651 -0.795,0 -1.276,0.4496 -0.475,0.4495 -0.548,1.266 z m -4.78,-1.4883 q -0.16,-0.093 -0.351,-0.1344 -0.186,-0.047 -0.414,-0.047 -0.806,0 -1.24,0.5271 -0.429,0.5219 -0.429,1.5038 v 3.0489 h -0.956 v -5.7878 h 0.956 v 0.8992 q 0.3,-0.5271 0.78,-0.7803 0.481,-0.2584 1.168,-0.2584 0.1,0 0.217,0.016 0.119,0.01 0.264,0.036 z m -4.914,1.7673 v 0.4651 h -4.372 q 0.06,0.9819 0.589,1.4986 0.532,0.5116 1.478,0.5116 0.548,0 1.059,-0.1343 0.517,-0.1344 1.024,-0.4031 v 0.8991 q -0.512,0.2171 -1.05,0.3308 -0.537,0.1137 -1.09,0.1137 -1.385,0 -2.196,-0.8062 -0.806,-0.8061 -0.806,-2.1807 0,-1.4211 0.765,-2.2531 0.77,-0.8372 2.072,-0.8372 1.168,0 1.845,0.7545 0.682,0.7493 0.682,2.0412 z m -0.951,-0.279 q -0.01,-0.7804 -0.439,-1.2454 -0.424,-0.4651 -1.127,-0.4651 -0.796,0 -1.276,0.4496 -0.476,0.4495 -0.548,1.266 z m -7.214,-4.0205 v 1.6433 h 1.958 v 0.739 h -1.958 v 3.1419 q 0,0.708 0.191,0.9095 0.196,0.2016 0.791,0.2016 h 0.976 v 0.7958 h -0.976 q -1.101,0 -1.52,-0.4082 -0.418,-0.4135 -0.418,-1.4987 v -3.1419 h -0.698 v -0.739 h 0.698 v -1.6433 z m -2.848,3.9378 v 3.4933 h -0.95 v -3.4623 q 0,-0.8217 -0.321,-1.2299 -0.32,-0.4083 -0.961,-0.4083 -0.77,0 -1.214,0.491 -0.445,0.4909 -0.445,1.3384 v 3.2711 h -0.9558 v -5.7878 h 0.9558 v 0.8992 q 0.341,-0.5219 0.801,-0.7803 0.465,-0.2584 1.07,-0.2584 0.997,0 1.509,0.6201 0.511,0.615 0.511,1.8139 z m -7.8905,-4.222 h 1.0439 v 7.7153 h -1.0439 z m -5.0746,2.1498 v 0.8888 q -0.4031,-0.2222 -0.8113,-0.3307 -0.4031,-0.1137 -0.8165,-0.1137 -0.925,0 -1.4366,0.5891 -0.5116,0.5839 -0.5116,1.6433 0,1.0594 0.5116,1.6485 0.5116,0.5839 1.4366,0.5839 0.4134,0 0.8165,-0.1085 0.4082,-0.1137 0.8113,-0.3359 v 0.8785 q -0.3979,0.186 -0.8268,0.279 -0.4238,0.093 -0.9044,0.093 -1.3074,0 -2.0774,-0.8217 -0.7699,-0.8216 -0.7699,-2.2169 0,-1.4159 0.7751,-2.2273 0.7803,-0.8113 2.1342,-0.8113 0.4393,0 0.8579,0.093 0.4185,0.088 0.8113,0.2688 z m -7.1003,-0.2223 h 0.9508 v 5.7878 h -0.9508 z m 0,-2.253 h 0.9508 v 1.204 h -0.9508 z m -2.9353,0 h 0.9509 v 8.0408 h -0.9509 z m -2.5631,5.1521 q 0,-1.049 -0.4341,-1.6433 -0.4289,-0.5995 -1.1834,-0.5995 -0.7545,0 -1.1885,0.5995 -0.4289,0.5943 -0.4289,1.6433 0,1.049 0.4289,1.6485 0.434,0.5942 1.1885,0.5942 0.7545,0 1.1834,-0.5942 0.4341,-0.5995 0.4341,-1.6485 z m -3.2349,-2.0206 q 0.2997,-0.5167 0.7544,-0.7648 0.4599,-0.2532 1.0956,-0.2532 1.0542,0 1.7105,0.8372 0.6614,0.8371 0.6614,2.2014 0,1.3642 -0.6614,2.2014 -0.6563,0.8372 -1.7105,0.8372 -0.6357,0 -1.0956,-0.2481 -0.4547,-0.2532 -0.7544,-0.77 v 0.8682 h -0.9561 v -8.0408 h 0.9561 z m -7.736,2.6252 v -3.5037 h 0.9508 v 3.4675 q 0,0.8217 0.3204,1.2351 0.3204,0.4082 0.9612,0.4082 0.77,0 1.2144,-0.4909 0.4496,-0.4909 0.4496,-1.3384 v -3.2815 h 0.9508 v 5.7878 h -0.9508 v -0.8888 q -0.3462,0.5271 -0.8062,0.7854 -0.4547,0.2533 -1.0593,0.2533 -0.9974,0 -1.5141,-0.6202 -0.5168,-0.6201 -0.5168,-1.8138 z m 2.3926,-3.6432 z M 63.1475,30.8509 V 33.75 h 1.3126 q 0.7286,0 1.1265,-0.3772 0.398,-0.3773 0.398,-1.0749 0,-0.6925 -0.398,-1.0697 -0.3979,-0.3773 -1.1265,-0.3773 z m -1.0438,-0.8578 h 2.3564 q 1.2971,0 1.9585,0.5891 0.6667,0.584 0.6667,1.7157 0,1.142 -0.6667,1.726 -0.6614,0.5839 -1.9585,0.5839 h -1.3126 v 3.1006 h -1.0438 z m -4.9713,4.5837 v 0.4651 h -4.3718 q 0.062,0.9819 0.5891,1.4986 0.5323,0.5116 1.4779,0.5116 0.5478,0 1.0594,-0.1343 0.5168,-0.1344 1.0232,-0.4031 v 0.8991 q -0.5116,0.2171 -1.049,0.3308 -0.5375,0.1137 -1.0904,0.1137 -1.3849,0 -2.1963,-0.8062 -0.8061,-0.8061 -0.8061,-2.1807 0,-1.4211 0.7648,-2.2531 0.77,-0.8372 2.0722,-0.8372 1.1679,0 1.8449,0.7545 0.6821,0.7493 0.6821,2.0412 z m -0.9509,-0.279 q -0.01,-0.7804 -0.4392,-1.2454 -0.4237,-0.4651 -1.1265,-0.4651 -0.7959,0 -1.2765,0.4496 -0.4754,0.4495 -0.5477,1.266 z m -5.9066,-0.083 v 3.4933 h -0.9508 v -3.4623 q 0,-0.8217 -0.3204,-1.2299 -0.3204,-0.4083 -0.9612,-0.4083 -0.77,0 -1.2144,0.491 -0.4444,0.4909 -0.4444,1.3384 v 3.2711 h -0.956 v -8.0408 h 0.956 v 3.1522 q 0.3411,-0.5219 0.801,-0.7803 0.4651,-0.2584 1.0697,-0.2584 0.9973,0 1.5089,0.6201 0.5116,0.615 0.5116,1.8139 z M 42.2496,30.277 v 1.6433 h 1.9585 v 0.739 h -1.9585 v 3.1419 q 0,0.708 0.1912,0.9095 0.1964,0.2016 0.7907,0.2016 h 0.9766 v 0.7958 h -0.9766 q -1.1008,0 -1.5193,-0.4082 -0.4186,-0.4135 -0.4186,-1.4987 V 32.6596 H 40.596 v -0.739 h 0.6976 v -1.6433 z m -6.2167,3.9378 v 3.4933 h -0.9508 v -3.4623 q 0,-0.8217 -0.3204,-1.2299 -0.3204,-0.4083 -0.9612,-0.4083 -0.77,0 -1.2144,0.491 -0.4444,0.4909 -0.4444,1.3384 v 3.2711 h -0.956 v -5.7878 h 0.956 v 0.8992 q 0.3411,-0.5219 0.801,-0.7803 0.4651,-0.2584 1.0697,-0.2584 0.9973,0 1.5089,0.6201 0.5116,0.615 0.5116,1.8139 z m -7.7463,-2.2945 h 0.9509 v 5.7878 h -0.9509 z m 0,-2.253 h 0.9509 v 1.204 h -0.9509 z m -4.9299,4.9092 v 0.4651 h -4.3718 q 0.062,0.9819 0.5891,1.4986 0.5323,0.5116 1.478,0.5116 0.5477,0 1.0593,-0.1343 0.5168,-0.1344 1.0232,-0.4031 v 0.8991 q -0.5116,0.2171 -1.049,0.3308 -0.5375,0.1137 -1.0904,0.1137 -1.3849,0 -2.1962,-0.8062 -0.8062,-0.8061 -0.8062,-2.1807 0,-1.4211 0.7648,-2.2531 0.77,-0.8372 2.0722,-0.8372 1.1679,0 1.8449,0.7545 0.6821,0.7493 0.6821,2.0412 z m -0.9508,-0.279 q -0.01,-0.7804 -0.4393,-1.2454 -0.4237,-0.4651 -1.1265,-0.4651 -0.7958,0 -1.2764,0.4496 -0.4754,0.4495 -0.5478,1.266 z m -4.7801,-1.4883 q -0.1602,-0.093 -0.3514,-0.1344 -0.186,-0.047 -0.4134,-0.047 -0.8061,0 -1.2402,0.5271 -0.4289,0.5219 -0.4289,1.5038 v 3.0489 h -0.9561 v -5.7878 h 0.9561 v 0.8992 q 0.2997,-0.5271 0.7803,-0.7803 0.4806,-0.2584 1.1679,-0.2584 0.098,0 0.217,0.016 0.1189,0.01 0.2635,0.036 z m -7.214,1.9895 q -1.15239,0 -1.59681,0.2636 -0.44441,0.2635 -0.44441,0.8991 0,0.5065 0.33072,0.8062 0.3359,0.2945 0.90951,0.2945 0.79069,0 1.26609,-0.5581 0.4806,-0.5632 0.4806,-1.4934 V 34.799 Z m 1.8965,-0.3927 v 3.3021 h -0.9508 v -0.8785 q -0.3256,0.5271 -0.8113,0.7803 -0.4858,0.2481 -1.18861,0.2481 -0.88883,0 -1.41593,-0.4961 -0.52193,-0.5013 -0.52193,-1.3384 0,-0.9767 0.65112,-1.4728 0.65629,-0.4961 1.95335,-0.4961 h 1.3333 v -0.093 q 0,-0.6563 -0.4341,-1.0129 -0.4289,-0.3617 -1.20924,-0.3617 -0.49609,0 -0.96635,0.1188 -0.47025,0.1189 -0.90433,0.3566 v -0.8785 q 0.52193,-0.2015 1.01285,-0.2997 0.49093,-0.1034 0.95602,-0.1034 1.25575,0 1.87585,0.6511 0.6201,0.6512 0.6201,1.9741 z M -1.43243,31.9206 h 0.950844 l 1.188556,4.5166 1.18339,-4.5166 h 1.12138 l 1.18855,4.5166 1.18339,-4.5166 H 6.33453 L 4.82041,37.7084 H 3.69903 L 2.45363,32.9645 1.20306,37.7084 H 0.081686 Z m -2.66134,-1.6433 v 1.6433 h 1.95854 v 0.739 h -1.95854 v 3.1419 q 0,0.708 0.19121,0.9095 0.19637,0.2016 0.79065,0.2016 h 0.97668 v 0.7958 h -0.97668 q -1.10071,0 -1.51929,-0.4082 -0.41858,-0.4135 -0.41858,-1.4987 v -3.1419 h -0.69763 v -0.739 h 0.69763 v -1.6433 z m -1.54512,-0.6097 v 0.7906 h -0.9095 q -0.5116,0 -0.71314,0.2067 -0.19637,0.2067 -0.19637,0.7442 v 0.5115 h 1.5658 v 0.739 h -1.5658 v 5.0488 h -0.95601 v -5.0488 h -0.9095 v -0.739 h 0.9095 v -0.403 q 0,-0.9664 0.44959,-1.4056 0.44958,-0.4444 1.42626,-0.4444 z m -7.15721,2.9197 q -0.7648,0 -1.2092,0.5994 -0.4444,0.5943 -0.4444,1.633 0,1.0387 0.4392,1.6381 0.4445,0.5943 1.2144,0.5943 0.7597,0 1.2041,-0.5994 0.4444,-0.5995 0.4444,-1.633 0,-1.0284 -0.4444,-1.6278 -0.4444,-0.6046 -1.2041,-0.6046 z m 0,-0.8062 q 1.2403,0 1.9482,0.8062 0.708,0.8061 0.708,2.2324 0,1.4211 -0.708,2.2324 -0.7079,0.8062 -1.9482,0.8062 -1.2454,0 -1.9533,-0.8062 -0.7028,-0.8113 -0.7028,-2.2324 0,-1.4263 0.7028,-2.2324 0.7079,-0.8062 1.9533,-0.8062 z m -4.2943,-1.5348 v 1.0181 q -0.5942,-0.2843 -1.1213,-0.4238 -0.5271,-0.1395 -1.0181,-0.1395 -0.8526,0 -1.3177,0.3307 -0.4599,0.3307 -0.4599,0.9405 0,0.5116 0.3049,0.7752 0.31,0.2584 1.1678,0.4185 l 0.6305,0.1292 q 1.1679,0.2222 1.7208,0.7855 0.5581,0.5581 0.5581,1.4986 0,1.1214 -0.7545,1.7002 -0.7493,0.5788 -2.2014,0.5788 -0.5477,0 -1.1679,-0.1241 -0.6149,-0.124 -1.2764,-0.3669 v -1.0748 q 0.6357,0.3565 1.2454,0.5374 0.6098,0.1809 1.1989,0.1809 0.894,0 1.3798,-0.3514 0.4857,-0.3514 0.4857,-1.0026 0,-0.5684 -0.3514,-0.8888 -0.3462,-0.3204 -1.142,-0.4806 l -0.6356,-0.124 q -1.1679,-0.2325 -1.6898,-0.7286 -0.522,-0.4961 -0.522,-1.3798 0,-1.0232 0.7183,-1.6123 0.7235,-0.5891 1.9896,-0.5891 0.5426,0 1.1058,0.098 0.5633,0.098 1.1524,0.2945 z"
           style="fill:#000000;fill-opacity:1;stroke-width:0.264583"
           id="path103-8" />
      </g>
      <path
         transform="matrix(0.804324,0,0,0.804324,26.2132,34.7195)"
         sodipodi:nodetypes="cccccccccccccccccccccccccccccsccccccccccccccccccccccccccccccccccc"
         style="color:#000000;font-style:normal;font-variant:normal;font-weight:bold;font-stretch:normal;font-size:48.570534px;line-height:100%;font-family:Transformers;-inkscape-font-specification:'Transformers Bold';text-indent:0;text-align:start;text-decoration:none;text-decoration-line:none;letter-spacing:-0.542395px;word-spacing:normal;text-transform:none;writing-mode:lr-tb;direction:ltr;text-anchor:start;visibility:visible;fill:#555753;fill-opacity:1;fill-rule:nonzero;stroke:none;stroke-width:1;marker:none;filter:url(#filter5477-4)"
         d="m 98.4067,128.047 c -2.036,0 -3.7851,0.448 -5.2463,1.384 -1.4613,0.935 -2.7049,2.48 -3.7201,4.626 l -1.3593,5.103 h 28.807 l 0.02,-0.07 h 8.251 l -0.02,0.07 c 0,0 0.02,0 0.02,0 0.875,-1.424 1.855,-3.019 2.981,-4.769 1.147,-1.816 2.46,-3.922 3.934,-6.344 z m 69.2513,0 -33.696,0.07 -2.957,11.042 h 41.017 c 0.431,-1.61 0.811,-2.968 1.383,-5.104 0.135,-2.146 -0.28,-3.69 -1.24,-4.626 -0.96,-0.935 -2.471,-1.383 -4.507,-1.383 z m 9.157,0.07 -2.957,11.042 h 13.927 l 2.981,-11.042 z m -91.2379,17.796 c -0.211,0.761 -0.4436,1.545 -0.7154,2.385 l -0.7393,2.79 c -0.1035,3.467 1.8659,5.223 5.9379,5.223 h 19.0777 l -2.6,9.395 H 84.2417 l -7.0826,11.304 23.2509,-0.167 0.02,-0.07 10.683,-0.167 c 4.072,0 6.997,-1.731 8.752,-5.198 l 5.151,-19.245 h -0.167 c 0.03,-0.11 0.07,-0.2 0.09,-0.31 0.1,-0.165 0.161,-0.319 0.191,-0.429 0.135,-2.146 -0.28,-3.691 -1.24,-4.626 -0.386,-0.376 -0.871,-0.658 -1.431,-0.883 H 85.5771 Z m 42.8529,0 -8.299,30.93 h 14.046 l 2.766,-10.302 h -0.09 l 3.243,-12.067 h 21.534 l 0.07,-0.238 c 1.56,-0.275 2.899,-0.877 4.03,-1.812 1.186,-0.936 2.229,-2.31 3.1,-4.126 0.104,-0.385 0.202,-0.84 0.334,-1.335 0.06,-0.227 0.198,-0.721 0.286,-1.05 z m 42.853,0 -8.275,30.858 h 13.879 l 8.322,-30.858 z"
         id="path5465"
         inkscape:connector-curvature="0" />
      <path
         inkscape:connector-curvature="0"
         id="path4643"
         d="m 102.967,134.92 c -1.638,0 -3.0445,0.36 -4.2198,1.112 -1.1753,0.753 -2.1756,1.995 -2.9921,3.721 l -1.0933,4.105 h 23.1702 l 0.02,-0.06 h 6.637 l -0.02,0.06 c 0,0 0.02,0 0.02,0 0.703,-1.146 1.492,-2.428 2.397,-3.836 0.922,-1.461 1.979,-3.155 3.165,-5.102 z m 55.701,0 -27.103,0.06 -2.378,8.881 h 32.991 c 0.346,-1.295 0.651,-2.387 1.112,-4.105 0.109,-1.726 -0.225,-2.969 -0.997,-3.721 -0.772,-0.752 -1.988,-1.112 -3.625,-1.113 z m 7.365,0.06 -2.379,8.881 h 11.201 l 2.398,-8.881 z m -73.3852,14.314 c -0.1697,0.612 -0.3568,1.242 -0.5754,1.918 l -0.5946,2.244 c -0.083,2.789 1.5008,4.2 4.776,4.2 h 15.3452 l -2.092,7.558 H 91.5737 l -5.6967,9.091 18.701,-0.134 0.02,-0.06 8.593,-0.134 c 3.276,0 5.628,-1.393 7.04,-4.182 l 4.142,-15.478 h -0.133 c 0.02,-0.09 0.05,-0.161 0.07,-0.249 0.08,-0.133 0.129,-0.257 0.154,-0.345 0.107,-1.726 -0.226,-2.969 -0.998,-3.722 -0.31,-0.302 -0.7,-0.528 -1.151,-0.709 H 92.6478 Z m 34.4682,0 -6.675,24.877 h 11.297 l 2.225,-8.286 h -0.07 l 2.609,-9.705 h 17.319 l 0.06,-0.192 c 1.254,-0.222 2.331,-0.705 3.241,-1.458 0.954,-0.752 1.792,-1.857 2.494,-3.318 0.08,-0.31 0.161,-0.676 0.268,-1.074 0.05,-0.182 0.159,-0.58 0.23,-0.844 z m 34.467,0 -6.655,24.82 h 11.162 l 6.694,-24.82 z"
         style="color:#000000;font-style:normal;font-variant:normal;font-weight:bold;font-stretch:normal;font-size:48.570534px;line-height:100%;font-family:Transformers;-inkscape-font-specification:'Transformers Bold';text-indent:0;text-align:start;text-decoration:none;text-decoration-line:none;letter-spacing:-0.542395px;word-spacing:normal;text-transform:none;writing-mode:lr-tb;direction:ltr;text-anchor:start;visibility:visible;fill:url(#linearGradient5559-4);fill-opacity:1;fill-rule:nonzero;stroke:none;stroke-width:0.804324;marker:none"
         sodipodi:nodetypes="cccccccccccccccccccccccccccccsccccccccccccccccccccccccccccccccccc" />
      <path
         style="color:#000000;font-style:normal;font-variant:normal;font-weight:bold;font-stretch:normal;font-size:48.570534px;line-height:100%;font-family:Transformers;-inkscape-font-specification:'Transformers Bold';text-indent:0;text-align:start;text-decoration:none;text-decoration-line:none;letter-spacing:-0.542395px;word-spacing:normal;text-transform:none;writing-mode:lr-tb;direction:ltr;text-anchor:start;visibility:visible;fill:none;stroke:#000000;stroke-width:0.492885;stroke-opacity:1;marker:none;filter:url(#filter5611-2)"
         d="m 277.803,83.5338 c -2.036,0 -3.785,0.4477 -5.247,1.3831 -1.461,0.9355 -2.704,2.4803 -3.72,4.6263 l -1.359,5.1032 h 28.807 l 0.02,-0.072 h 8.251 l -0.02,0.072 c 0,0 0.02,0 0.02,0 0.875,-1.4242 1.855,-3.0187 2.981,-4.7693 1.147,-1.8159 2.46,-3.9221 3.935,-6.3433 h -33.672 z m 69.251,0 -33.696,0.072 -2.957,11.0411 h 41.017 c 0.431,-1.6097 0.811,-2.9672 1.383,-5.1032 0.135,-2.1461 -0.28,-3.6908 -1.24,-4.6263 -0.96,-0.9355 -2.471,-1.3831 -4.507,-1.3832 z m 9.157,0.072 -2.957,11.0411 h 13.927 l 2.981,-11.0411 z m -91.238,17.7972 c -0.211,0.761 -0.443,1.544 -0.715,2.384 l -0.739,2.791 c -0.104,3.465 1.865,5.221 5.937,5.221 h 19.078 l -2.599,9.396 h -22.297 l -7.083,11.303 23.251,-0.167 0.02,-0.07 10.683,-0.168 c 4.072,0 6.998,-1.732 8.752,-5.198 l 5.151,-19.244 h -0.167 c 0.03,-0.11 0.07,-0.2 0.09,-0.31 0.1,-0.165 0.162,-0.319 0.191,-0.43 0.135,-2.146 -0.28,-3.69 -1.24,-4.626 -0.386,-0.377 -0.87,-0.657 -1.431,-0.883 h -36.891 z m 42.853,0 -8.299,30.928 h 14.046 l 2.766,-10.301 h -0.09 l 3.243,-12.066 h 21.534 l 0.07,-0.239 c 1.56,-0.275 2.899,-0.877 4.03,-1.812 1.187,-0.936 2.229,-2.31 3.101,-4.126 0.103,-0.385 0.201,-0.84 0.333,-1.335 0.06,-0.226 0.198,-0.72 0.287,-1.049 H 307.83 Z m 42.853,0 -8.275,30.857 h 13.879 l 8.322,-30.857 z"
         id="path5481"
         inkscape:connector-curvature="0"
         clip-path="url(#clipPath6474-1-2)"
         transform="matrix(0.804324,0,0,0.804324,-120.835,67.3731)"
         sodipodi:nodetypes="cccccccccccccccccccccccccccccsccccccccccccccccccccccccccccccccccc" />
    </g>
  </g>
</svg>
